<?xml version="1.0" encoding="utf-8"?>
<!-- Generator: Adobe Illustrator 19.0.0, SVG Export Plug-In . SVG Version: 6.00 Build 0)  -->
<svg version="1.1" id="Layer_1" xmlns="http://www.w3.org/2000/svg" xmlns:xlink="http://www.w3.org/1999/xlink" x="0px" y="0px"
	 viewBox="0 0 500 500" style="enable-background:new 0 0 500 500;" xml:space="preserve">
<style type="text/css">
	.st0{fill:#A7A9AC;stroke:#D1D3D4;stroke-width:15;stroke-miterlimit:10;}
	.st1{fill:#6D6E71;}
	.st2{fill:#FBB040;}
</style>
<g id="XMLID_9_">
	<path id="XMLID_3_" class="st0" d="M478.8,478.8H151.6c-72.1,0-130.5-58.4-130.5-130.5V21.2h327.1c72.1,0,130.6,58.5,130.6,130.6
		V478.8z"/>
	<path id="XMLID_1_" class="st1" d="M434,416.7c-2.1-7-3.2-14.4-3.2-22.2v-53.1c0-7.6-0.6-15.1-1.8-22.5c-1.2-7.4-3.5-14.2-6.8-20.4
		c-3.3-6.2-7.9-11.7-13.6-16.5c-5.7-4.8-13.2-8.3-22.2-10.6c8.1-4.4,15.3-9.8,21.4-16.1c6.1-6.3,11.2-13.2,15.4-20.7
		c4.2-7.5,7.3-15.4,9.3-23.6c2-8.2,3.1-16.7,3.1-25.4c0-11.8-2.3-23.7-6.9-35.6c-4.6-11.8-11.4-22.5-20.4-32.1
		c-9-9.5-20-17.3-33.2-23.2c-13.2-5.9-28.2-8.9-45.3-8.9H290h-37.5l-85.8,17.9l19.7,16h37.5h28.6v133.3l-48.3,16.8l19.7,16h28.6
		v63.3c0,12.2-2,22.5-6,30.7c-4,8.2-8.9,14.8-14.7,19.7c-2.2,1.8-4.4,3.4-6.7,4.9c-8,5.6-18.5,9-30,9c-3.9,0-7.8-0.4-11.4-1.1
		c-3.4-0.6-6.8-1.5-10.2-2.7c-6.9-2.5-13.2-6.3-18.8-11.5c-5.6-5.2-10.1-11.8-13.6-19.7c-3.5-8-5.3-17.4-5.3-28.3v-22.8l-19.7-16
		l-17.8,43.2c0,15,2.6,28.2,7.9,39.7c5.3,11.5,12.4,21.1,21.3,28.8c8.9,7.7,19.1,13.5,30.6,17.4c11.5,3.9,23.4,5.8,35.6,5.8
		c13,0,25.3-1.9,36.9-5.7c11.6-3.8,21.8-9.8,30.6-17.9c8.8-8.1,15.8-18.7,21-31.5c5.2-12.9,7.8-28.4,7.8-46.5v-58.6h39.7
		c11.8,0,21.8,1.6,30,4.9c8.1,3.2,14.8,7.5,19.9,12.6c5.1,5.2,8.8,11.1,11.1,17.6c2.3,6.6,3.5,13.2,3.5,19.9v55.8
		c0,2.6,0.1,5.7,0.3,9.2c0.2,3.5,0.5,7.1,1,10.7c0.5,3.6,1.2,7.1,2.2,10.6c1,3.4,2.4,6.4,4,9h40.6
		C438.8,430.2,436.1,423.7,434,416.7z M377.7,233.4c-6.3,6.1-13.6,10.9-21.8,14.4c-8.2,3.5-17,5.3-26.2,5.3H290V119.8h39.7
		c9.8,0,18.9,1.6,27.2,4.9c8.3,3.2,15.6,7.8,21.7,13.6c6.1,5.8,10.9,12.7,14.3,20.7c3.4,8,5.1,16.7,5.1,26.1
		c0,9.4-1.8,18.3-5.4,26.7C389,220,384,227.3,377.7,233.4z"/>
	<path id="XMLID_11_" class="st2" d="M414.2,400.7c-2.1-7-3.2-14.4-3.2-22.2v-53.1c0-7.6-0.6-15.1-1.8-22.5
		c-1.2-7.4-3.5-14.2-6.8-20.4c-3.3-6.2-7.9-11.7-13.6-16.5c-5.7-4.8-13.2-8.3-22.2-10.6c8.1-4.4,15.3-9.8,21.4-16.1
		c6.1-6.3,11.2-13.2,15.4-20.7c4.2-7.5,7.3-15.4,9.3-23.6c2-8.2,3.1-16.7,3.1-25.4c0-11.8-2.3-23.7-6.9-35.6
		c-4.6-11.8-11.4-22.5-20.4-32.1c-9-9.5-20-17.3-33.2-23.2c-13.2-5.9-28.2-8.9-45.3-8.9h-39.7h-37.5h-66.1v33.9h37.5h28.6v133.3
		h-28.6v32.8h28.6v63.3c0,12.2-2,22.5-6,30.7c-4,8.2-8.9,14.8-14.7,19.7c-2.2,1.8-4.4,3.4-6.7,4.9c-8,5.6-18.5,9-30,9
		c-3.9,0-7.8-0.4-11.4-1.1c-3.4-0.6-6.8-1.5-10.2-2.7c-6.9-2.5-13.2-6.3-18.8-11.5c-5.6-5.2-10.1-11.8-13.6-19.7
		c-3.5-8-5.3-17.4-5.3-28.3v-22.8H78.6v27.2c0,15,2.6,28.2,7.9,39.7c5.3,11.5,12.4,21.1,21.3,28.8c8.9,7.7,19.1,13.5,30.6,17.4
		c11.5,3.9,23.4,5.8,35.6,5.8c13,0,25.3-1.9,36.9-5.7c11.6-3.8,21.8-9.8,30.6-17.9c8.8-8.1,15.8-18.7,21-31.5
		c5.2-12.9,7.8-28.4,7.8-46.5v-58.6h39.7c11.8,0,21.8,1.6,30,4.9c8.1,3.2,14.8,7.5,19.9,12.6c5.1,5.2,8.8,11.1,11.1,17.6
		c2.3,6.6,3.5,13.2,3.5,19.9v55.8c0,2.6,0.1,5.7,0.3,9.2c0.2,3.5,0.5,7.1,1,10.7c0.5,3.6,1.2,7.1,2.2,10.6c1,3.4,2.4,6.4,4,9h40.6
		C419.1,414.2,416.4,407.7,414.2,400.7z M358,217.4c-6.3,6.1-13.6,10.9-21.8,14.4c-8.2,3.5-17,5.3-26.2,5.3h-39.7V103.8h39.7
		c9.8,0,18.9,1.6,27.2,4.9c8.3,3.2,15.6,7.8,21.7,13.6c6.1,5.8,10.9,12.7,14.3,20.7c3.4,8,5.1,16.7,5.1,26.1
		c0,9.4-1.8,18.3-5.4,26.7C369.2,204,364.3,211.3,358,217.4z"/>
	<path id="XMLID_8_" class="st1" d="M381.9,420.1c0,0,5.8,8.5,19.7,16l-5-16H381.9z"/>
</g>
</svg>
