<?xml version="1.0" encoding="utf-8"?>
<!-- Generator: Adobe Illustrator 16.0.3, SVG Export Plug-In . SVG Version: 6.00 Build 0)  -->
<!DOCTYPE svg PUBLIC "-//W3C//DTD SVG 1.1//EN" "http://www.w3.org/Graphics/SVG/1.1/DTD/svg11.dtd">
<svg version="1.1" id="Layer_1" xmlns="http://www.w3.org/2000/svg" xmlns:xlink="http://www.w3.org/1999/xlink" x="0px" y="0px"
	 width="48px" height="48px" viewBox="0 0 48 48" enable-background="new 0 0 48 48" xml:space="preserve">
<rect x="9.074" y="8.992" transform="matrix(0.7071 0.7071 -0.7071 0.7071 23.9839 -9.9828)" fill="#2B286A" stroke="#96C3E9" stroke-width="3" stroke-miterlimit="10" width="29.936" height="29.935"/>
<g>
	<path fill="#96C3E9" d="M22.402,16.045v10.144c0,3.564-1.21,5.258-4.004,5.258c-0.594,0-1.232-0.064-1.871-0.219v-1.893
		c0.44,0.176,0.858,0.264,1.342,0.264c1.782,0,2.376-1.275,2.376-3.873v-9.681H22.402z"/>
</g>
<g>
	<path fill="#96C3E9" d="M26.083,31.232V21.089c0-3.564,1.21-5.258,4.004-5.258c0.595,0,1.232,0.064,1.871,0.219v1.893
		c-0.44-0.176-0.858-0.264-1.342-0.264c-1.783,0-2.377,1.275-2.377,3.873v9.681H26.083z"/>
</g>
</svg>
